# xmcd
#
# Track frame offsets:
#	150
#	10899
#	22171
#	33034
#	47250
#	60726
#	71684
#	82099
#	97245
#	110395
#	122848
#	132102
#
# Disc length: 1915 seconds
#
# Revision: 1
# Processed by: cddbd v1.5.2PL0 Copyright (c) Steve Scherf et al.
# Submitted via: audiograbber 1.83.01
#
DISCID=9e07790c
DTITLE=Big Tom and The Mainliners - Ashes Of Love
DYEAR=2009
DGENRE=
TTITLE0=Ashes Of Love
TTITLE1=Down By The Old River
TTITLE2=I'll Be Waiting There For You
TTITLE3=Sunday Morning Christian
TTITLE4=Life To Go
TTITLE5=Far Away Places
TTITLE6=The Wine Flowed Freely
TTITLE7=Good Hearted Woman
TTITLE8=All My Friends
TTITLE9=I Can't See Me Without You
TTITLE10=Mary Don't You Weep
TTITLE11=Fallen Leaves
EXTD=
EXTT0=
EXTT1=
EXTT2=
EXTT3=
EXTT4=
EXTT5=
EXTT6=
EXTT7=
EXTT8=
EXTT9=
EXTT10=
EXTT11=
PLAYORDER=
